<svg width="205" height="392" viewBox="0 0 205 392" fill="none" xmlns="http://www.w3.org/2000/svg">
<path d="M74.7417 13.4087L75.9511 12.2004L78.1282 10.7504L83.6918 10.2671C84.4175 10.2671 85.1431 9.78375 85.1431 9.05877L87.0783 8.8171C88.0459 8.8171 88.7716 7.85046 88.5297 6.88382C88.5297 6.64216 88.2878 6.40053 88.2878 6.15887C88.7716 5.67555 88.7716 4.95056 88.5297 4.22558C88.0459 3.01729 86.8364 2.29231 85.8688 2.53397L78.1282 4.7089C77.8863 4.7089 77.8863 4.7089 77.8863 4.7089C77.8863 4.7089 77.8863 4.7089 77.6444 4.7089C77.6444 4.7089 77.6444 4.7089 77.4025 4.7089C77.4025 4.7089 77.4025 4.70891 77.1606 4.95057L71.597 10.0254C70.8713 10.7504 70.8713 11.9587 71.597 12.9253C72.5646 13.8919 74.016 14.1336 74.7417 13.4087Z" fill="#FFAE80"/>
<path d="M68.2109 32.5002L71.5975 29.1169C72.3232 28.392 73.0489 27.4253 73.5327 26.217L74.7422 23.3171C74.9841 23.0754 74.9841 22.5921 75.226 22.3504L80.0639 17.5172C80.7896 16.7922 80.7896 15.5839 79.822 14.6173C78.8544 13.8923 77.6449 13.6506 76.9192 14.3756L73.7746 17.7589L74.984 13.1673L79.0963 7.6091L85.6275 4.70918C86.5951 4.22586 86.837 3.01754 86.3532 2.05089C85.6275 1.08425 84.418 0.600928 83.4504 0.842589L75.7097 4.4675C75.7097 4.4675 71.5975 8.33409 70.388 9.5424C70.1461 9.78406 69.9042 10.2674 69.6623 10.509C68.4528 12.2007 65.5501 16.7922 64.3406 21.3838L61.6797 26.942L68.2109 32.5002Z" fill="#FFAE80"/>
<path d="M2.66723 105.396C5.3281 101.046 8.95654 98.146 12.8269 94.2794C13.0688 94.0377 13.5526 93.5544 13.7945 93.3128C19.1162 87.7546 30.4853 76.8798 30.4853 76.8798C30.4853 76.8798 53.4655 38.214 62.4157 21.781L72.8173 39.9056C65.8023 54.6469 54.4331 82.6796 49.8371 88.7212C41.3707 99.8376 31.4529 110.712 22.2609 122.07C19.6 125.212 15.2459 127.87 11.1336 128.595C9.92413 128.837 8.95654 128.837 7.98895 128.595C4.3605 127.87 1.94155 124.97 0.973962 121.104C-0.719314 116.029 -0.235529 110.229 2.66723 105.396Z" fill="#EA4A49"/>
<path opacity="0.3" d="M13.3047 208.779C13.7885 212.646 14.5142 216.512 15.2399 220.137C15.4818 221.345 15.7237 222.312 15.9656 223.52C16.4494 225.212 16.9331 226.904 17.4169 228.595C17.175 231.495 17.175 234.395 16.9331 237.053L16.6912 243.82C16.6912 245.995 16.4493 248.17 16.4493 250.103C22.9806 249.62 30.9631 249.62 39.4295 249.861C42.5742 255.903 42.0904 263.395 41.3647 270.403C41.1228 273.303 40.8809 276.444 39.6714 279.103C38.4619 281.761 36.5267 284.419 33.8659 285.386C36.7686 288.044 38.4619 291.911 39.1876 295.535C39.9133 299.402 39.9133 303.269 40.3971 307.135C40.639 312.452 41.3647 317.768 42.0904 322.843V320.427L43.058 292.877L51.0405 239.712V238.503L59.7488 291.427L59.9907 292.394C59.9907 305.202 59.5069 318.977 59.265 332.268C59.265 332.51 59.265 332.751 59.265 332.993C59.7488 327.918 60.2326 322.843 60.4745 317.527C60.4745 315.11 60.7164 312.693 61.4421 310.519C61.9259 309.069 62.6516 307.619 63.1354 306.169C64.8286 300.852 64.3448 294.811 67.2476 289.977C67.4895 289.494 67.7314 289.011 67.7314 288.527C67.7314 288.044 67.4895 287.319 67.4895 286.836C63.1354 275.236 61.684 262.428 62.8935 250.103C71.1179 250.103 78.6167 249.378 84.6641 247.928L84.1803 241.162L83.2128 226.42L82.729 217.479L82.0033 206.121C69.9085 205.879 57.5717 207.812 45.4769 208.296C34.5916 209.262 23.9481 208.779 13.3047 208.779Z" fill="#1D1D1B"/>
<path d="M41.1211 84.323L47.8942 83.3563L48.8618 89.8812L41.6049 89.6396L41.1211 84.323Z" fill="#EBB677"/>
<path opacity="0.3" d="M57.8125 118.398C61.199 141.356 64.3437 164.555 69.9073 187.03C72.8101 198.629 76.1966 209.746 80.3088 220.62C81.0345 222.795 82.0021 224.97 82.9697 227.387V226.904L82.4859 217.962L81.7602 206.604L81.5183 201.046V198.871C81.5183 196.938 81.5183 195.246 81.5183 193.313C81.5183 191.138 81.2764 188.963 81.2764 187.03C81.2764 185.58 81.0345 183.888 81.0345 182.438C80.7926 180.505 80.7926 178.813 80.5507 177.121C80.5507 176.396 80.3088 175.43 80.3088 174.705C80.3088 173.738 80.067 172.771 80.067 171.805C80.067 170.838 79.8251 170.113 79.8251 169.147C79.8251 168.18 79.5832 167.455 79.5832 166.488V166.247C69.9073 151.747 65.5532 134.106 57.8125 118.398Z" fill="#456F96"/>
<path opacity="0.3" d="M37.2532 180.746C34.8342 169.388 30.2382 158.513 27.3354 147.155C24.4326 135.797 23.9489 123.231 29.7544 113.081C28.303 126.856 33.6247 140.147 37.0113 153.68C40.8816 169.63 41.8492 186.546 39.6722 202.737C39.1884 195.488 38.7046 187.996 37.2532 180.746Z" fill="#456F96"/>
<path d="M13.0605 387.85C13.0605 388.091 13.0605 388.575 13.0605 388.816H37.9759V388.333C37.9759 388.091 37.9759 388.091 37.9759 387.85V387.608C37.734 386.4 37.4921 385.192 37.2502 384.225C36.0407 380.358 33.1379 379.15 29.7514 378.667C28.5419 378.425 27.3324 378.425 25.8811 378.425H24.9135C19.108 378.425 14.27 378.908 13.3024 384.95C13.0605 386.158 13.0605 386.883 13.0605 387.85Z" fill="#212121"/>
<path d="M12.8184 387.85L13.0603 389.058V391.716H37.9756L37.7337 389.058V388.575V388.091V387.85H12.8184Z" fill="#1D1715"/>
<path d="M65.7957 386.4C65.7957 386.883 65.7957 387.366 65.7957 387.85V388.816H105.951C105.951 388.333 105.951 388.091 105.709 387.85C104.499 382.05 97.2423 379.15 89.2597 377.942C82.9704 376.975 76.4391 377.217 71.3593 377.942C69.666 378.183 68.2147 378.425 67.0052 378.908C66.5214 379.15 65.3119 379.392 65.7957 386.4Z" fill="#1D1715"/>
<path d="M65.7969 387.849V388.816L66.0388 391.716H106.194L105.952 388.816V387.849H65.7969Z" fill="#16191E"/>
<path d="M130.626 203.946C131.351 205.154 131.11 207.329 131.11 208.779C130.626 212.887 129.658 215.062 128.207 218.445C126.513 222.312 117.805 217.479 117.563 216.754C117.321 216.029 117.563 215.062 118.289 214.579C119.982 213.37 122.401 215.545 123.853 214.095C124.336 213.612 124.336 212.887 124.578 212.162C124.82 210.47 124.336 208.296 122.885 207.571C121.917 207.087 120.466 207.329 119.257 207.329C116.112 207.571 111.758 204.671 110.548 201.771C109.339 198.871 111.758 196.212 114.177 194.279C115.144 193.313 116.596 192.829 118.047 193.071C118.773 193.313 129.658 202.496 130.626 203.946Z" fill="#FFAE80"/>
<path d="M11.1278 383.017C11.1278 383.983 11.8535 384.708 13.3049 385.192C15.482 385.916 19.1104 386.158 22.9808 386.158C23.7065 386.158 24.4321 386.158 25.1578 385.916C29.2701 385.675 33.6242 384.95 37.0108 384.225C38.2203 383.983 39.1878 383.742 39.9135 383.5L42.0906 322.843V320.426L43.0582 292.877L51.0408 239.711V238.503L59.749 291.427L59.9909 292.394C59.9909 305.202 59.5071 318.735 59.2652 332.268C59.0233 353.292 59.5072 373.35 63.8613 387.125C64.1032 386.883 64.3451 386.883 64.587 386.883C64.8289 386.641 65.3127 386.641 65.5546 386.4C67.4897 385.675 69.6668 384.95 72.0858 384.466C77.8913 382.775 84.6644 381.325 89.5023 377.942V377.7L87.0833 294.085L84.4225 247.928L83.9387 241.161L83.213 226.903V226.42L82.7292 217.479L82.0035 206.12L81.7616 200.562V198.387L81.5197 194.762L81.2778 191.138L81.0359 186.788H13.063C12.8211 188.479 12.8211 189.929 12.8211 191.621C12.8211 192.829 12.8211 193.796 12.8211 195.004C12.8211 199.112 13.063 202.979 13.3049 206.845C13.3049 207.57 13.5468 208.054 13.5468 208.779C14.0306 212.645 14.7563 216.512 15.482 220.137C15.7239 221.345 15.9658 222.312 16.2077 223.52C16.6915 225.212 17.1753 226.903 17.659 228.595C17.659 229.803 17.4172 231.012 17.4172 232.462C17.4172 234.153 17.1753 235.603 17.1753 237.295L16.9334 244.061C16.9334 246.236 16.6915 248.411 16.6915 250.345C15.9658 264.361 15.482 277.894 15.482 288.044C15.482 289.01 15.482 289.977 15.482 290.944C15.482 294.81 15.2401 300.852 14.7563 308.343C12.8211 332.751 8.95078 370.934 11.1278 383.017Z" fill="#5E4A4C"/>
<path d="M21.2857 90.123L20.0762 68.8568C29.2683 68.6151 41.3631 67.8902 43.5402 67.4069C43.5402 67.4069 44.5078 82.8732 45.4754 89.398C49.5876 106.314 29.5102 108.731 21.2857 90.123Z" fill="#FFAE80"/>
<path d="M17.4157 72.7238C15.2386 68.8573 14.9967 66.924 14.0291 62.5741C11.6102 42.0329 23.705 42.9995 31.4457 41.7912C40.3959 40.8246 49.8299 45.6578 52.2488 59.1908C52.0069 60.6408 51.5231 61.8491 51.5231 61.8491L55.6354 69.0989C56.361 70.3072 55.8773 71.7572 54.4259 72.2405L52.4907 72.9655C52.7326 74.4154 53.7002 80.2153 53.7002 80.2153C54.184 83.5986 53.4583 89.3984 48.6204 89.6401C46.6852 89.3984 42.0892 86.2569 39.6702 73.9321C36.5255 74.1738 19.109 75.6238 17.4157 72.7238Z" fill="#FFAE80"/>
<path d="M21.046 81.665C45.4776 84.3233 39.1883 73.2068 39.4302 70.7902C39.4302 70.0653 43.3005 70.0652 43.3005 69.3403C43.0586 56.7739 37.9788 49.0407 48.1385 49.0407C51.7669 47.8324 52.2507 35.5077 29.0286 39.6159C18.869 41.5492 11.6121 48.3157 11.3702 58.7072C10.8864 68.8569 16.6919 80.215 21.046 81.665Z" fill="black"/>
<path d="M34.1064 69.0989C34.5902 72.2405 37.2511 75.6238 38.9443 75.3821C40.6376 75.1405 40.1538 72.4822 39.67 69.0989C39.4281 66.9239 38.9444 64.024 37.2511 63.5406C35.5578 63.5406 33.3807 64.5073 34.1064 69.0989Z" fill="#FFAE80"/>
<path d="M0 114.289C0 114.773 0 115.256 0 115.739V115.981L1.20948 131.689V132.172C1.20948 132.172 7.25691 188.238 5.07984 223.762C4.83795 228.837 9.19207 233.187 14.5138 232.462C15.4814 232.462 16.2071 232.22 17.1747 232.22C26.3667 231.495 38.9454 232.462 51.524 233.912C55.1524 234.395 59.0228 234.878 62.6512 235.362C71.3595 236.57 79.584 230.287 80.0678 221.345V221.104C80.0678 220.862 80.0678 220.62 80.0678 220.379C80.7935 214.095 81.0354 207.571 81.0354 200.562V198.388C81.0354 196.454 81.0354 194.763 81.0354 192.829C81.0354 190.654 80.7935 188.479 80.7935 186.546C80.7935 185.096 80.5516 183.405 80.5516 181.955C80.3097 180.021 80.3097 178.33 80.0678 176.638C80.0678 175.913 79.8259 174.946 79.8259 174.221C79.8259 173.255 79.584 172.288 79.584 171.321C79.584 170.355 79.3421 169.63 79.3421 168.663C79.3421 167.697 79.1002 166.972 79.1002 166.005V165.763C79.1002 165.038 78.8583 164.313 78.8583 163.347C78.8583 162.38 78.6164 161.655 78.6164 160.688C78.1326 156.097 77.4069 151.747 76.9231 147.397C76.1974 142.564 75.4718 137.972 74.7461 133.864C74.2623 131.689 74.0204 129.514 73.5366 127.581C72.8109 123.956 72.3271 120.814 71.6014 117.914C71.1176 115.014 70.6338 112.839 70.15 111.148C69.6662 108.731 69.1824 107.281 69.1824 107.281C66.7635 102.931 67.4892 99.548 62.8931 97.1314C62.8931 97.1314 62.6512 97.1314 62.4093 96.8897C61.9255 96.6481 61.1998 96.4064 60.4742 96.1647H60.2323C55.3944 94.7148 46.2023 91.8148 46.2023 91.8148H45.7185H45.4766L22.4964 93.2648L18.1422 93.5064L7.7407 99.548C3.14467 102.69 0 108.248 0 114.289Z" fill="#EA4A49"/>
<path d="M43.0568 87.948C36.7675 86.7397 22.7375 87.7063 20.5605 88.673L18.8672 93.5062C20.5605 96.4061 35.3161 96.1644 46.6853 91.8146L46.2015 90.6063C45.7177 89.398 44.5082 88.1897 43.0568 87.948Z" fill="#C21E1D"/>
<path d="M50.7985 98.8232C50.0729 99.7898 49.831 100.756 49.3472 101.723C48.3796 105.59 48.6215 110.665 50.3148 114.29C50.3148 114.29 50.3148 114.29 50.3148 114.531C51.7661 118.156 53.4594 121.539 54.9108 125.164C55.8784 127.339 56.846 129.514 57.8136 131.931C59.2649 135.072 60.4744 138.456 61.9258 141.597C63.861 145.947 65.7961 150.055 67.7313 154.164C69.9084 158.514 80.0681 170.113 89.7439 181.471C90.4696 182.196 91.1953 183.163 91.6791 183.888C96.2751 189.205 103.29 199.113 106.435 202.979L122.642 192.829C111.998 177.605 87.083 142.322 87.083 142.322C87.083 142.322 82.2451 127.098 79.8261 120.089C79.5842 119.606 79.5843 119.123 79.3424 118.639C78.1329 115.015 77.1653 111.631 75.7139 108.49C75.2301 107.281 74.5044 106.073 73.7787 104.865C73.7787 104.865 73.7787 104.623 73.5368 104.381C73.0531 103.898 72.8112 103.173 72.3274 102.69C72.3274 102.69 72.3274 102.448 72.0855 102.448C69.1827 99.0649 65.0705 96.8899 60.7163 95.9232C56.6041 95.1982 52.9756 95.9233 50.7985 98.8232Z" fill="#EA4A49"/>
<path d="M134.738 253.244L132.803 253.727L161.347 370.208L185.294 364.408C194.728 362.233 200.292 353.05 198.115 344.109L194.728 330.334L183.359 284.177L182.633 281.035C177.554 260.252 156.267 247.928 134.738 253.244Z" fill="#5589B9"/>
<path d="M124.093 209.987C124.818 212.645 123.125 215.062 120.464 215.787C117.803 216.512 115.143 214.82 114.659 212.404C113.933 209.745 115.626 207.329 118.287 206.604C120.948 205.879 123.367 207.57 124.093 209.987Z" fill="#4D4D4D"/>
<path d="M158.687 383.258L164.008 382.05L121.918 210.954C121.435 209.504 119.983 208.537 118.532 208.779C117.08 209.262 116.113 210.712 116.597 212.162L158.687 383.258Z" fill="#1D1715"/>
<path d="M181.909 347.25L170.54 349.909C166.911 350.875 163.041 348.7 162.073 345.076L153.849 311.968C152.881 308.343 155.3 304.718 158.929 303.751L170.298 301.093C173.926 300.127 177.797 302.301 178.764 305.926L186.989 339.034C188.198 342.659 185.779 346.284 181.909 347.25Z" fill="#4072A1"/>
<path d="M196.18 301.576L204.405 334.684C205.372 338.309 202.953 341.934 199.325 342.901L198.115 343.142L186.746 296.985L187.956 296.743C191.342 295.777 195.213 297.952 196.18 301.576Z" fill="#4072A1"/>
<path d="M179.97 309.276L155.062 315.362L156.787 322.405L181.694 316.318L179.97 309.276Z" fill="#ECF0F1"/>
<path d="M196.896 305.325L188.906 307.276L190.629 314.318L198.618 312.368L196.896 305.325Z" fill="#ECF0F1"/>
<path d="M170.78 380.358C171.989 385.191 168.844 390.266 163.765 391.474C158.685 392.683 153.605 389.783 152.396 384.95C151.186 380.116 154.331 375.042 159.411 373.833C164.49 372.383 169.57 375.283 170.78 380.358Z" fill="#1D1715"/>
<path d="M166.185 381.324C166.669 383.741 165.218 386.157 162.799 386.882C160.38 387.607 157.719 385.916 157.235 383.499C156.751 381.083 158.203 378.666 160.622 377.941C163.041 377.458 165.46 378.908 166.185 381.324Z" fill="#F6F6F6"/>
</svg>
