<svg width="32" height="28" viewBox="0 0 32 28" fill="none" xmlns="http://www.w3.org/2000/svg">
<path d="M6.50586 11.9574C6.50586 17.274 10.86 21.6239 16.1817 21.6239C21.5035 21.6239 25.8576 17.274 25.8576 11.9574C25.8576 6.64087 21.5035 2.29095 16.1817 2.29095C10.86 2.29095 6.50586 6.64087 6.50586 11.9574Z" fill="#E1D7EF"/>
<path d="M0.942383 11.9579C0.942383 12.9246 0.942398 13.8912 1.18429 14.8579C2.63568 21.8661 8.68313 27.1826 16.1819 27.1826C23.6807 27.1826 29.7281 21.8661 31.1795 14.8579C31.4214 13.8912 31.4214 12.9246 31.4214 11.9579C31.4214 7.84967 29.7281 3.9831 27.0673 1.32482C25.6159 0.599839 23.6807 0.116516 21.9874 0.116516H11.344C8.92502 0.116516 6.74792 0.841508 4.81275 2.04982C2.39378 4.70809 0.942383 8.33299 0.942383 11.9579ZM16.1819 21.3827C12.0697 21.3827 8.4412 18.7245 7.23171 14.8579C6.98982 13.8912 6.74789 12.9246 6.74789 11.9579C6.74789 6.88302 10.8602 2.53313 16.1819 2.53313C21.2618 2.53313 25.6159 6.64136 25.6159 11.9579C25.6159 12.9246 25.374 13.8912 25.1321 14.8579C23.9226 18.7245 20.5361 21.3827 16.1819 21.3827Z" fill="#9891A1"/>
<path d="M9.16699 11.9576C9.16699 15.8242 12.3117 18.9658 16.182 18.9658C20.0524 18.9658 23.197 15.8242 23.197 11.9576C23.197 8.09104 20.0524 4.94946 16.182 4.94946C12.3117 4.94946 9.16699 8.09104 9.16699 11.9576Z" fill="white"/>
<path d="M12.0674 11.9574C12.0674 14.374 14.0025 16.3074 16.4215 16.3074C18.8404 16.3074 20.7756 14.374 20.7756 11.9574C20.7756 9.54076 18.8404 7.60748 16.4215 7.60748C14.0025 7.84915 12.0674 9.78243 12.0674 11.9574Z" fill="#E1D7EF"/>
<path opacity="0.5" d="M20.0513 4.22412C21.5026 4.9491 22.7121 6.15741 23.6797 7.36571L16.4229 11.7156L20.0513 4.22412Z" fill="white"/>
<path opacity="0.5" d="M16.1806 11.9578L12.3101 19.6909C10.8587 18.9659 9.64924 17.7576 8.68164 16.3077L16.1806 11.9578Z" fill="white"/>
</svg>
