<svg width="111" height="100" viewBox="0 0 111 100" fill="none" xmlns="http://www.w3.org/2000/svg">
<path d="M90.9469 43.9932C90.9469 63.3261 75.2236 79.0341 55.8719 79.0341C36.5201 79.0341 20.7969 63.3261 20.7969 43.9932C20.7969 24.6602 36.5201 8.95222 55.8719 8.95222C75.2236 9.19388 90.9469 24.6602 90.9469 43.9932Z" fill="#DAD1D1"/>
<path d="M97.2356 7.98552C90.4625 3.63562 82.238 0.977356 73.7717 0.977356H35.3102C28.5371 0.977356 22.2478 2.66897 16.6842 5.56891C7.00834 15.477 0.960938 29.0101 0.960938 43.9931C0.960938 47.618 1.20282 51.0012 1.92851 54.3845C6.76643 79.7589 29.0209 98.8502 55.8714 99.0918C82.7218 99.0918 104.976 80.0006 109.814 54.3845C110.54 51.0012 110.782 47.618 110.782 44.2348C110.782 30.4601 105.702 17.652 97.2356 7.98552ZM23.6992 54.3845C22.7316 51.0012 22.0059 47.618 22.0059 43.9931C22.0059 25.3852 37.2453 10.1605 55.8714 10.1605C74.4974 10.1605 89.7368 25.3852 89.7368 43.9931C89.7368 47.618 89.2531 51.0012 88.0436 54.1428C83.6895 67.6758 70.8689 77.584 55.8714 77.584C40.6319 77.8257 28.0533 67.9175 23.6992 54.3845Z" fill="black"/>
<path d="M81.5126 43.9929C81.5126 58.0092 70.1434 69.609 55.8715 69.609C41.8415 69.609 30.2305 58.2509 30.2305 43.9929C30.2305 29.9765 41.5996 18.3767 55.8715 18.3767C69.9015 18.6184 81.5126 29.9765 81.5126 43.9929Z" fill="white"/>
<path d="M71.3533 43.9932C71.3533 52.4513 64.3383 59.4595 55.872 59.4595C47.4056 59.4595 40.3906 52.4513 40.3906 43.9932C40.3906 35.535 47.1637 28.5269 55.872 28.5269C64.3383 28.7685 71.3533 35.535 71.3533 43.9932Z" fill="#DAD1D1"/>
<path opacity="0.5" d="M42.5663 16.4438C37.2446 19.1021 32.6486 23.2103 29.5039 28.2852L55.8706 43.9931L42.5663 16.4438Z" fill="white"/>
<path opacity="0.5" d="M55.8711 43.993L69.4174 72.0258C74.7391 69.3676 79.3352 65.2593 82.4798 59.9427L55.8711 43.993Z" fill="white"/>
</svg>
