<svg width="45" height="45" viewBox="0 0 45 45" fill="none" xmlns="http://www.w3.org/2000/svg">
<path d="M3.86956 23.2106C3.86956 23.694 3.86956 23.9356 3.86956 24.4189H2.90197C2.90197 24.4189 2.41818 24.6606 2.17628 25.1439L1.93438 25.3856C1.93438 26.1106 2.17628 26.5939 2.17628 27.3189V27.5606C2.17628 27.5606 2.17628 27.5606 2.41817 27.3189C2.66007 27.0773 2.90197 26.8356 2.90197 26.8356L4.35334 26.5939C4.35334 27.0772 4.59524 27.3189 4.59524 27.8022L3.86956 28.0439H3.62765C3.62765 28.0439 3.62766 28.0439 3.38576 28.2855C3.38576 28.5272 3.14386 28.5272 2.90197 28.7689L2.66007 29.0105C2.90197 29.7355 3.14387 30.4605 3.38576 31.1855C3.38576 31.1855 3.38576 30.9438 3.62765 30.9438C3.86955 30.7022 3.86956 30.4605 3.86956 30.4605L5.07904 29.9772C5.32094 30.2188 5.32093 30.7022 5.56282 30.9438L4.59524 31.4272C4.59524 31.4272 4.35335 31.9105 4.11145 32.1521C4.11145 32.3938 4.11145 32.3938 3.86956 32.3938C4.11145 33.1188 4.59525 33.6021 5.07904 34.3271V34.0854C5.07904 34.0854 5.07904 34.0854 5.07904 33.8438C5.07904 33.6021 5.32093 33.6021 5.32093 33.6021L6.53041 32.8771C6.77231 33.1188 7.0142 33.6021 7.2561 33.8438L6.53041 34.3271C6.53041 34.3271 6.28852 34.8104 6.28852 35.2937C6.28852 35.5354 6.28852 35.5354 6.28852 35.5354C6.77231 36.0187 7.2561 36.7437 7.7399 37.227V36.9854C7.7399 36.7437 7.98179 36.502 7.98179 36.502L8.94938 35.5354C9.19127 35.777 9.43317 36.0187 9.67507 36.2604L8.94938 36.9854C8.94938 36.9854 8.94938 37.4687 8.70749 37.952C8.70749 38.1937 8.70749 38.1937 8.70749 38.1937C9.19128 38.677 9.91696 39.1603 10.4008 39.6436V39.402C10.4008 39.1603 10.4008 38.9186 10.4008 38.9186L11.1265 37.952C11.3683 38.1937 11.6102 38.4353 12.094 38.677L11.6102 39.402C11.6102 39.402 11.6102 39.8853 11.6102 40.3686C11.6102 40.6103 11.6102 40.6103 11.6102 40.6103C12.3359 41.0936 12.8197 41.3353 13.5454 41.8186V41.5769C13.5454 41.3353 13.5454 41.0936 13.5454 41.0936L14.2711 39.8853C14.513 40.127 14.9968 40.127 15.2387 40.3686L14.7549 41.3352V41.5769C14.7549 41.8186 14.7549 42.0603 14.7549 42.3019C14.7549 42.5436 14.7549 42.5436 14.7549 42.5436C15.4806 42.7852 16.2063 43.0269 16.932 43.2685V43.0269C16.932 42.7852 16.6901 42.5436 16.6901 42.5436L17.1739 41.3352C17.4158 41.3352 17.8995 41.5769 18.1414 41.5769L17.8995 42.5436C17.8995 42.5436 18.1414 43.0269 18.1414 43.5102C18.1414 43.5102 18.1414 43.5102 18.1414 43.7519C18.8671 43.9935 19.5928 43.9936 20.3185 44.2352V43.9935C20.0766 43.7519 20.0766 43.5102 20.0766 43.5102L20.3185 42.0602C20.8023 42.0602 21.0442 42.0603 21.528 42.3019V43.2685C21.528 43.2685 21.7699 43.7519 22.0118 44.2352C22.0118 44.4769 22.0118 44.4769 22.2537 44.4769C22.4956 44.4769 22.4956 44.4769 22.7375 44.4769C23.2213 44.4769 23.947 44.4769 24.4308 44.4769C24.4308 44.4769 24.4308 44.2352 24.1889 44.2352C23.947 43.9936 23.947 43.7519 23.947 43.7519V42.3019C24.4308 42.3019 24.6727 42.3019 25.1564 42.3019V43.2685C25.1564 43.2685 25.3983 43.7519 25.8821 43.9935L26.124 44.2352C26.8497 44.2352 27.5754 43.9935 28.3011 43.7519C28.3011 43.7519 28.0592 43.7519 28.0592 43.5102C27.8173 43.2686 27.5754 43.0269 27.5754 43.0269L27.3335 41.5769C27.8173 41.5769 28.0592 41.3352 28.543 41.3352L28.7849 42.3019C28.7849 42.3019 28.7849 42.3019 29.0268 42.5436C29.2687 42.5436 29.2687 42.7852 29.5106 43.0269L29.7525 43.2685C30.4782 43.0269 31.2039 42.7852 31.9295 42.5436C31.9295 42.5436 31.6876 42.5436 31.6876 42.3019C31.4458 42.0603 31.2039 42.0602 31.2039 42.0602L30.7201 40.8519C30.962 40.6103 31.4458 40.6103 31.6876 40.3686L32.1714 41.3352C32.1714 41.3352 32.6552 41.5769 32.8971 41.8186C33.139 41.8186 33.139 41.8186 33.139 42.0602C33.8647 41.8186 34.3485 41.3353 35.0742 40.8519H34.8323C34.8323 40.8519 34.8323 40.8519 34.5904 40.8519C34.3485 40.8519 34.3485 40.6103 34.3485 40.6103L33.6228 39.402C33.8647 39.1603 34.3485 38.9187 34.5904 38.677L35.0742 39.402C35.0742 39.402 35.558 39.6436 36.0418 39.6436C36.2837 39.6436 36.2837 39.6436 36.2837 39.6436C36.7675 39.402 37.0094 39.1603 37.2513 38.677C37.4932 38.4353 37.7351 38.4353 37.977 38.1937H37.7351C37.4932 38.1937 37.2513 37.952 37.2513 37.952L36.2837 36.9854C36.5256 36.7437 36.7675 36.502 37.0094 36.2604L37.7351 36.9854C37.7351 36.9854 38.2188 36.9853 38.7026 37.227C38.9445 37.227 38.9445 37.227 38.9445 37.227C39.4283 36.7437 39.9121 36.0187 40.3959 35.5354H40.154C39.9121 35.5354 39.6702 35.5354 39.6702 35.5354L37.977 34.3271C38.2189 34.0854 38.4607 33.8438 38.7026 33.3604L39.4283 33.8438C39.4283 33.8438 39.9121 33.8438 40.3959 33.8438C40.6378 33.8438 40.6378 33.8438 40.6378 33.8438C41.1216 33.1188 41.3635 32.6355 41.8473 31.9105H41.6054C41.3635 31.9105 41.1216 31.9105 41.1216 31.9105L39.9121 31.1855C40.154 30.9438 40.154 30.4605 40.3959 30.2188L41.3635 30.7022H41.6054C41.8473 30.7022 42.0892 30.7022 42.3311 30.7022C42.573 30.7022 42.573 30.7022 42.573 30.7022C42.8149 29.9772 43.0568 29.2522 43.2987 28.5272H43.0568C42.8149 28.5272 42.573 28.7689 42.573 28.7689L41.3635 28.2855C41.3635 28.0439 41.6054 27.5606 41.6054 27.3189L42.573 27.5606C42.573 27.5606 43.0568 27.3189 43.5406 27.3189C43.5406 27.3189 43.5406 27.3189 43.7825 27.3189C44.0244 26.5939 44.0244 25.8689 44.2663 25.1439H44.0244C43.7825 25.3856 43.5406 25.3856 43.5406 25.3856L42.0892 25.1439C42.0892 24.6606 42.0892 24.419 42.3311 23.9356H43.2987C43.2987 23.9356 43.7825 23.694 44.2663 23.4523C44.5082 23.4523 44.5082 23.4523 44.5082 23.2106C44.5082 22.969 44.5082 22.969 44.5082 22.7273C44.5082 22.244 44.5082 21.519 44.5082 21.0357C44.5082 21.0357 44.2663 21.0357 44.2663 21.2774C44.0244 21.519 43.7825 21.519 43.7825 21.519H42.3311C42.3311 21.0357 42.3311 20.794 42.3311 20.3107H43.2987C43.2987 20.3107 43.7825 20.069 44.0244 19.5857L44.2663 19.3441C44.2663 18.6191 44.0244 17.8941 43.7825 17.1691C43.7825 17.1691 43.7825 17.4108 43.5406 17.4108C43.2987 17.6524 43.0568 17.8941 43.0568 17.8941L41.6054 18.1358C41.6054 17.6525 41.3635 17.4108 41.3635 16.9275L42.3311 16.6858C42.3311 16.6858 42.3311 16.6858 42.573 16.4442C42.573 16.2025 42.8149 16.2025 43.0568 15.9608L43.2987 15.7192C43.0568 14.9942 42.8149 14.2692 42.573 13.5442C42.573 13.5442 42.573 13.7859 42.3311 13.7859C42.0892 14.0275 42.0892 14.2692 42.0892 14.2692L40.8797 14.7525C40.6378 14.5108 40.6378 14.0275 40.3959 13.7859L41.3635 13.3025C41.3635 13.3025 41.6054 12.8192 41.8473 12.5776C41.8473 12.3359 41.8473 12.3359 42.0892 12.3359C41.8473 11.6109 41.3635 11.1276 40.8797 10.4026V10.6443C40.8797 10.6443 40.8797 10.6443 40.8797 10.8859C40.8797 11.1276 40.6378 11.1276 40.6378 11.1276L39.4283 11.8526C39.1864 11.6109 38.9445 11.1276 38.7026 10.8859L39.4283 10.4026C39.4283 10.4026 39.6702 9.91927 39.6702 9.43595C39.6702 9.19429 39.6702 9.19431 39.6702 9.19431C39.1864 8.71099 38.7026 7.98597 38.2188 7.50265C38.2188 7.74431 38.2188 7.74433 38.2188 7.74433C38.2188 7.98599 37.977 8.22764 37.977 8.22764L37.0094 9.19431C36.7675 8.95265 36.5256 8.71098 36.2837 8.46932L37.0094 7.74433C37.0094 7.74433 37.0094 7.26102 37.2513 6.7777C37.2513 6.53603 37.2513 6.53602 37.2513 6.53602C36.7675 6.0527 36.0418 5.56936 35.558 5.08604V5.32771C35.558 5.56937 35.558 5.81103 35.558 5.81103L34.8323 6.7777C34.5904 6.53603 34.3485 6.29436 33.8647 6.0527L34.3485 5.32771C34.3485 5.32771 34.3485 4.8444 34.3485 4.36108C34.3485 4.11942 34.3485 4.1194 34.3485 4.1194C33.6228 3.63608 33.139 3.39442 32.4133 2.9111V3.15277C32.4133 3.39444 32.4133 3.63609 32.4133 3.63609L31.6876 4.8444C31.4458 4.60274 30.962 4.60274 30.7201 4.36108L31.2039 3.39441V3.15277C31.2039 2.91111 31.2039 2.66944 31.2039 2.42778C31.2039 2.18612 31.2039 2.18611 31.2039 2.18611C30.4782 1.94444 29.7525 1.70278 29.0268 1.46111V1.70279C29.0268 1.94445 29.2687 2.18611 29.2687 2.18611L28.7849 3.39441C28.543 3.39441 28.0592 3.15277 27.8173 3.15277L28.0592 2.18611C28.0592 2.18611 27.8173 1.7028 27.8173 1.21948C27.8173 1.21948 27.8173 1.21946 27.8173 0.977799C27.0916 0.736138 26.3659 0.736145 25.6402 0.494484V0.73616C25.8821 0.977821 25.8821 1.21948 25.8821 1.21948L25.6402 2.66942C25.1564 2.66942 24.9145 2.66944 24.4308 2.42778V1.46111C24.4308 1.46111 24.1889 0.977807 23.947 0.494484C23.947 0.252822 23.947 0.252808 23.7051 0.252808C23.4632 0.252808 23.4632 0.252808 23.2213 0.252808C22.7375 0.252808 22.0118 0.252808 21.528 0.252808C21.528 0.252808 21.528 0.494484 21.7699 0.494484C22.0118 0.736145 22.0118 0.977799 22.0118 0.977799V2.42778C21.528 2.42778 21.2861 2.42778 20.8023 2.42778V1.46111C20.8023 1.46111 20.5604 0.977821 20.0766 0.73616L19.8347 0.494484C19.109 0.494484 18.3833 0.736138 17.6576 0.977799C17.6576 0.977799 17.8995 0.977814 17.8995 1.21948C18.1414 1.46114 18.3833 1.70279 18.3833 1.70279L18.6252 3.15277C18.1414 3.15277 17.8995 3.39441 17.4158 3.39441L17.1739 2.42778C17.1739 2.42778 17.1739 2.42777 16.932 2.18611C16.6901 2.18611 16.6901 1.94445 16.4482 1.70279L16.2063 1.46111C15.4806 1.70278 14.7549 1.94444 14.0292 2.18611C14.0292 2.18611 14.2711 2.18612 14.2711 2.42778C14.513 2.66944 14.7549 2.66942 14.7549 2.66942L15.2387 3.87773C14.9968 4.11939 14.513 4.11942 14.2711 4.36108L13.7873 3.39441C13.7873 3.39441 13.3035 3.15276 13.0616 2.9111C12.8197 2.9111 12.8197 2.91108 12.8197 2.66942C12.094 2.91108 11.6102 3.39441 10.8845 3.87773H11.1265C11.1265 3.87773 11.1264 3.87773 11.3683 3.87773C11.6102 3.87773 11.6102 4.1194 11.6102 4.1194L12.3359 5.32771C12.094 5.56937 11.6102 5.81104 11.3683 6.0527L10.8845 5.32771C10.8845 5.32771 10.4008 5.08604 9.91697 5.08604C9.67507 5.08604 9.67507 5.08604 9.67507 5.08604C9.19127 5.56936 8.70748 5.81102 8.22369 6.29434C8.22369 6.29434 8.22369 6.29436 7.98179 6.53602H8.22369C8.46559 6.53602 8.70749 6.7777 8.70749 6.7777L9.67507 7.74433C9.43317 7.98599 9.19127 8.22766 8.94938 8.46932L8.22369 7.74433C8.22369 7.74433 7.73989 7.74431 7.2561 7.50265C7.0142 7.50265 7.01421 7.50265 7.01421 7.50265C6.53042 7.98597 6.04662 8.71099 5.56282 9.19431H5.80473C6.04662 9.19431 6.28852 9.19431 6.28852 9.19431L7.2561 9.91926C7.0142 10.1609 6.77231 10.4026 6.53041 10.8859L5.80473 10.4026C5.80473 10.4026 5.32093 10.4026 4.83714 10.4026C4.59524 10.4026 4.59524 10.4026 4.59524 10.4026C4.11145 11.1276 3.86955 11.6109 3.38576 12.3359H3.62765C3.86955 12.3359 4.11145 12.3359 4.11145 12.3359L5.32093 13.0609C5.07903 13.3025 5.07903 13.7859 4.83714 14.0275L3.86956 13.5442H3.62765C3.38576 13.5442 3.14386 13.5442 2.90197 13.5442C2.66007 13.5442 2.66007 13.5442 2.66007 13.5442C2.41818 14.2692 2.17627 14.9942 1.93438 15.7192H2.17628C2.41818 15.7192 2.66007 15.4775 2.66007 15.4775L3.86956 15.9608C3.86956 16.2025 3.62765 16.6858 3.62765 16.9275L2.66007 16.6858C2.66007 16.6858 2.17628 16.9275 1.69248 16.9275C1.69248 16.9275 1.69249 16.9275 1.45059 16.9275C1.2087 17.6525 1.20869 18.3774 0.966797 19.1024H1.20869C1.45059 18.8607 1.69248 18.8608 1.69248 18.8608L4.11145 19.8274C4.11145 20.3107 4.11145 20.5524 3.86956 21.0357H2.90197C2.90197 21.0357 2.41817 21.2774 1.93438 21.519C1.69248 21.519 1.69248 21.519 1.69248 21.7607C1.69248 22.0024 1.69248 22.0023 1.69248 22.244C1.69248 22.7273 1.69248 23.4523 1.69248 23.9356C1.69248 23.9356 1.93438 23.9357 1.93438 23.694C2.17627 23.4523 2.41817 23.4523 2.41817 23.4523L3.86956 23.2106Z" fill="#9891A1"/>
<path d="M38.7012 11.6111C38.9431 11.8527 39.185 12.336 39.4269 12.5777L40.6363 11.8527C40.6363 11.8527 40.6363 11.6111 40.8782 11.6111C40.8782 11.6111 40.8782 11.6111 40.8782 11.3694C40.6363 10.8861 40.3944 10.6444 39.9106 10.1611C39.6688 10.6444 39.6688 11.1277 39.6688 11.1277L38.7012 11.6111Z" fill="#A49DAE"/>
<path d="M6.28712 22.2441C6.52902 13.0609 14.2697 5.8111 23.4618 5.8111C32.6539 6.05276 39.9108 13.7859 39.9108 22.9691C39.6689 32.1522 31.9282 39.402 22.7361 39.402C13.3021 39.1604 6.04523 31.4272 6.28712 22.2441Z" fill="#A49DAE"/>
<path d="M4.35286 22.2442C4.59476 12.0944 13.0611 3.87792 23.4627 4.11958C33.6223 4.36124 41.8468 12.8194 41.6049 23.2108C41.363 33.3606 32.8967 41.5771 22.4951 41.3355C12.3354 40.8521 4.11096 32.394 4.35286 22.2442ZM4.59476 22.2442C4.35286 32.394 12.3354 40.8522 22.4951 41.0938C32.6548 41.3355 41.1211 33.3606 41.363 23.2108C41.6049 13.061 33.6223 4.60292 23.4627 4.36125C13.303 3.87793 4.83666 12.0944 4.59476 22.2442Z" fill="#A49DAE"/>
<path d="M35.7969 36.7439L36.7645 37.7105C36.7645 37.7105 37.0064 37.7105 37.2483 37.9522C37.4902 37.7105 37.9739 37.2272 38.2158 36.9856C37.732 36.9856 37.2483 36.7439 37.2483 36.7439L36.5226 36.0189C36.2807 36.2606 36.0388 36.5022 35.7969 36.7439Z" fill="#A49DAE"/>
<path d="M37.9766 34.327L38.9442 35.052C38.9442 35.052 39.186 35.052 39.4279 35.052C39.6698 34.5687 39.9117 34.327 40.3955 33.8437C39.9117 33.8437 39.4279 33.8437 39.4279 33.8437L38.7023 33.3604C38.4604 33.8437 38.2185 34.0853 37.9766 34.327Z" fill="#A49DAE"/>
<path d="M30.2363 40.3686C30.4782 40.127 30.962 40.127 31.2039 39.8853L31.6877 40.8519C31.6877 40.8519 32.1715 41.0936 32.4134 41.3352C31.9296 41.5769 31.4458 41.8185 30.962 42.0602C30.7201 41.8185 30.4782 41.8186 30.4782 41.8186L30.2363 40.3686Z" fill="#A49DAE"/>
<path d="M33.8644 39.8855L33.1387 38.6772C33.3806 38.4355 33.8644 38.1938 34.1063 37.9521L34.59 38.6772C34.59 38.6772 35.0738 38.9188 35.5576 38.9188C35.0738 39.1605 34.8319 39.4021 34.3481 39.6438C34.3481 39.6438 34.3482 39.6438 34.1063 39.6438C34.1063 40.1271 33.8644 39.8855 33.8644 39.8855Z" fill="#A49DAE"/>
<path d="M39.9121 31.6689L41.1216 32.3939C41.1216 32.3939 41.3635 32.3939 41.6054 32.3939C41.8473 31.9106 42.0892 31.4273 42.3311 31.1856C42.0892 31.1856 41.8473 31.1856 41.6054 31.1856C41.3635 31.1856 41.3635 31.1856 41.3635 31.1856L40.3959 30.7023C40.154 30.944 40.154 31.1856 39.9121 31.6689Z" fill="#A49DAE"/>
<path d="M42.0879 20.7937C42.0879 21.2771 42.0879 21.5187 42.0879 22.0021H43.5393C43.5393 22.0021 43.7811 21.7604 44.023 21.7604C44.023 21.2771 44.023 20.7938 44.023 20.3104C43.5392 20.5521 43.2973 21.0354 43.2973 21.0354L42.0879 20.7937Z" fill="#A49DAE"/>
<path d="M27.0898 41.3351C27.5736 41.3351 27.8155 41.0934 28.2993 41.0934L28.5412 42.0601C28.5412 42.0601 28.5412 42.0601 28.7831 42.3018C29.025 42.3018 29.025 42.5434 29.2669 42.7851C28.7831 43.0267 28.2993 43.0267 27.8155 43.2684C27.5736 43.0267 27.3317 42.7851 27.3317 42.7851L27.0898 41.3351Z" fill="#A49DAE"/>
<path d="M41.1211 28.5273L42.3306 29.0106C42.3306 29.0106 42.5725 29.0106 42.8144 28.7689C43.0563 28.2856 43.0563 27.8023 43.2982 27.319C42.8144 27.5606 42.3306 27.5606 42.3306 27.5606L41.363 27.319C41.363 27.8023 41.363 28.2856 41.1211 28.5273Z" fill="#A49DAE"/>
<path d="M41.3613 17.6527C41.3613 17.8944 41.6032 18.3777 41.6032 18.861L43.0546 18.6193C43.0546 18.6193 43.2965 18.3777 43.5384 18.136C43.5384 17.6527 43.2965 17.1694 43.0546 16.686C42.8127 16.9277 42.8127 16.9277 42.5708 17.1693C42.3289 17.411 42.3289 17.411 42.3289 17.411L41.3613 17.6527Z" fill="#A49DAE"/>
<path d="M40.3945 14.5107C40.6364 14.7524 40.6364 15.2357 40.8783 15.4773L42.0878 14.994C42.0878 14.994 42.3297 14.7524 42.3297 14.5107C42.0878 14.0274 41.8459 13.5441 41.604 13.3024C41.3621 13.7857 41.1202 14.0274 41.1202 14.0274L40.3945 14.5107Z" fill="#A49DAE"/>
<path d="M41.8457 25.3853L43.2971 25.6269C43.2971 25.6269 43.539 25.6269 43.7809 25.3853C43.7809 24.902 43.7809 24.4186 44.0228 23.9353C43.539 24.177 43.0552 24.4186 43.0552 24.4186H42.0876C42.0876 24.6603 42.0876 24.902 41.8457 25.3853Z" fill="#A49DAE"/>
<path d="M5.5625 33.3602L6.77199 32.6353C7.01388 32.8769 7.25579 33.3602 7.49769 33.6019L6.77199 34.0852C6.77199 34.0852 6.53009 34.5685 6.53009 35.0519C6.2882 34.5685 6.0463 34.3269 5.8044 33.8436C5.8044 33.8436 5.8044 33.8435 5.8044 33.6019C5.56251 33.6019 5.5625 33.3602 5.5625 33.3602Z" fill="#A49DAE"/>
<path d="M5.31828 29.7355C5.56018 29.9771 5.56018 30.4604 5.80208 30.7021L4.83449 31.1854C4.83449 31.1854 4.59259 31.6687 4.35069 31.9104C4.10879 31.427 3.8669 30.9437 3.625 30.4604C3.8669 30.2188 3.8669 29.9771 3.8669 29.9771L5.31828 29.7355Z" fill="#A49DAE"/>
<path d="M23.7031 41.577C24.1869 41.577 24.4288 41.577 24.9126 41.577V42.5436C24.9126 42.5436 25.1545 43.027 25.6383 43.2686C25.1545 43.2686 24.6707 43.2686 24.1869 43.2686C23.945 43.027 23.945 42.7853 23.945 42.7853L23.7031 41.577Z" fill="#A49DAE"/>
<path d="M8.94776 35.293C9.18965 35.5347 9.43154 35.7764 9.67344 36.018L8.94776 36.743C8.94776 36.743 8.94776 37.2263 8.70586 37.7097C8.46397 37.468 7.98018 36.9847 7.73828 36.743C7.73828 36.5014 7.98017 36.2597 7.98017 36.2597L8.94776 35.293Z" fill="#A49DAE"/>
<path d="M2.65792 23.2108H4.10929C4.10929 23.6941 4.10929 23.9357 4.10929 24.4191H3.1417C3.1417 24.4191 2.65791 24.6607 2.41602 25.1441C2.41602 24.6607 2.41602 24.1774 2.41602 23.6941C2.41602 23.4524 2.65792 23.2108 2.65792 23.2108Z" fill="#A49DAE"/>
<path d="M4.35117 26.5939C4.35117 27.0772 4.59307 27.3189 4.59307 27.8022L3.62549 28.0438C3.62549 28.0438 3.62549 28.0438 3.3836 28.2855C3.3836 28.5272 3.1417 28.5272 2.89981 28.7688C2.65791 28.2855 2.65791 27.8022 2.41602 27.3189C2.65791 27.0772 2.89981 26.8355 2.89981 26.8355L4.35117 26.5939Z" fill="#A49DAE"/>
<path d="M17.173 40.8519C17.4149 40.8519 17.8987 41.0936 18.1405 41.0936L17.8987 42.0602C17.8987 42.0602 18.1405 42.5435 18.1405 43.0269C17.6568 43.0269 17.173 42.7852 16.6892 42.5435C16.6892 42.3019 16.4473 42.0602 16.4473 42.0602L17.173 40.8519Z" fill="#A49DAE"/>
<path d="M20.3164 41.577C20.8002 41.577 21.0421 41.577 21.5259 41.8187V42.7853C21.5259 42.7853 21.7678 43.2686 22.0097 43.7519C21.5259 43.7519 21.0421 43.7519 20.5583 43.5103C20.3164 43.2686 20.3164 43.027 20.3164 43.027V41.577Z" fill="#A49DAE"/>
<path d="M14.0265 39.4015C14.2684 39.6432 14.7522 39.6431 14.9941 39.8848L14.5103 40.8515V41.0931C14.5103 41.3348 14.5103 41.5765 14.5103 41.8181C14.0265 41.5765 13.5427 41.3348 13.3008 41.0931C13.3008 40.8515 13.3008 40.6098 13.3008 40.6098L14.0265 39.4015Z" fill="#A49DAE"/>
<path d="M11.3683 37.7103C11.6102 37.952 11.8521 38.1936 12.3358 38.4353L11.8521 39.1603C11.8521 39.1603 11.8521 39.6436 11.8521 40.1269C11.3683 39.8852 11.1264 39.6436 10.6426 39.1603C10.6426 38.9186 10.6426 38.677 10.6426 38.677L11.3683 37.7103Z" fill="#A49DAE"/>
<path d="M10.4004 5.81104C10.8842 6.05271 11.368 6.05272 11.368 6.05272L11.8518 6.77772C12.0937 6.53606 12.5775 6.29438 12.8194 6.05272L12.0937 4.8444C12.0937 4.8444 11.8518 4.84439 11.8518 4.60272C11.8518 4.60272 11.8518 4.60272 11.6099 4.60272C11.368 5.32771 10.8842 5.56938 10.4004 5.81104Z" fill="#A49DAE"/>
<path d="M24.6716 2.66958V3.63626C25.1554 3.63626 25.3973 3.63624 25.8811 3.8779L26.123 2.42794C26.123 2.42794 26.123 2.18628 25.8811 1.94462C25.3973 1.94462 24.9135 1.94461 24.4297 1.70294C24.4297 2.18627 24.6716 2.66958 24.6716 2.66958Z" fill="#A49DAE"/>
<path d="M30.9609 5.32788C31.2028 5.56954 31.6866 5.56953 31.9285 5.81119L32.6542 4.60289C32.6542 4.60289 32.6542 4.36124 32.6542 4.11958C32.1704 3.87792 31.6866 3.63625 31.4447 3.39459C31.4447 3.63625 31.4447 3.87792 31.4447 4.11958C31.4447 4.36124 31.4447 4.36125 31.4447 4.36125L30.9609 5.32788Z" fill="#A49DAE"/>
<path d="M28.058 3.15314L27.8161 4.11978C28.2999 4.11978 28.5418 4.36146 28.7837 4.36146L29.2675 3.15314C29.2675 3.15314 29.2675 2.91145 29.0256 2.66978C28.5418 2.42812 28.058 2.42813 27.5742 2.18646C28.058 2.66979 28.058 3.15314 28.058 3.15314Z" fill="#A49DAE"/>
<path d="M16.9297 2.66978C17.1716 2.91145 17.1716 2.91148 17.4135 3.15314C17.6554 3.3948 17.6554 3.39478 17.6554 3.39478L17.8973 4.36146C18.1392 4.36146 18.623 4.11978 19.1068 4.11978L18.8649 2.66978C18.8649 2.66978 18.623 2.42813 18.3811 2.18646C17.8973 2.42813 17.4135 2.42812 16.9297 2.66978Z" fill="#A49DAE"/>
<path d="M7.98145 10.8861C7.73956 11.1277 7.49766 11.3694 7.25577 11.8527L6.53008 11.3694C6.53008 11.3694 6.04629 11.3694 5.5625 11.3694C5.8044 10.886 6.04629 10.6444 6.53008 10.1611C6.77198 10.1611 7.01388 10.1611 7.01388 10.1611L7.98145 10.8861Z" fill="#A49DAE"/>
<path d="M4.83526 16.6854C4.83526 16.9271 4.59337 17.4105 4.59337 17.6521L3.62578 17.4104C3.62578 17.4104 3.142 17.6521 2.6582 17.6521C2.6582 17.1688 2.90009 16.6855 3.14199 16.2021C3.38388 16.2021 3.62578 15.9604 3.62578 15.9604L4.83526 16.6854Z" fill="#A49DAE"/>
<path d="M20.5566 1.94462C20.7985 2.42795 21.2823 2.66958 21.2823 2.66958V3.63626C21.7661 3.63626 22.008 3.63626 22.4918 3.63626V2.18626C22.4918 2.18626 22.2499 1.94461 22.2499 1.70294C21.5242 1.70294 21.0404 1.70296 20.5566 1.94462Z" fill="#A49DAE"/>
<path d="M13.5449 3.87791C14.0287 4.11958 14.2706 4.36127 14.2706 4.36127L14.7544 5.32791C14.9963 5.08625 15.4801 5.08625 15.722 4.84459L15.2382 3.63627C15.2382 3.63627 14.9963 3.39459 14.7544 3.39459C14.5125 3.39459 14.0287 3.63625 13.5449 3.87791Z" fill="#A49DAE"/>
<path d="M6.28812 13.5444C6.04622 13.786 6.04622 14.2694 5.80432 14.5111L4.83673 14.0277H4.59483C4.35293 14.0277 4.11104 14.0277 3.86914 14.0277C4.11104 13.5444 4.35293 13.0611 4.59483 12.8194C4.83673 12.8194 5.07863 12.8194 5.07863 12.8194L6.28812 13.5444Z" fill="#A49DAE"/>
<path d="M4.11066 19.8276C4.11066 20.311 4.11067 20.5526 3.86877 21.0359H2.90118C2.90118 21.0359 2.41739 21.2776 1.93359 21.5192C1.93359 21.0359 1.9336 20.5526 2.1755 20.0693C2.41739 19.8277 2.65929 19.8276 2.65929 19.8276H4.11066Z" fill="#A49DAE"/>
<path d="M33.8633 7.0197C34.1052 7.26137 34.589 7.50304 34.8309 7.7447L35.5566 6.77806C35.5566 6.77806 35.5566 6.53637 35.5566 6.2947C35.0728 6.05304 34.8309 5.81139 34.3471 5.32806C34.3471 5.81139 34.3471 6.2947 34.3471 6.2947L33.8633 7.0197Z" fill="#A49DAE"/>
<path d="M10.3994 8.46961C10.1576 8.71127 9.91565 8.95295 9.67376 9.19461L8.94806 8.46961C8.94806 8.46961 8.46426 8.4696 7.98047 8.22793C8.22237 7.98627 8.70617 7.50296 8.94806 7.26129C9.18996 7.26129 9.43186 7.50293 9.43186 7.50293L10.3994 8.46961Z" fill="#A49DAE"/>
<path d="M36.5254 8.9529C36.7673 9.19456 37.0092 9.43623 37.2511 9.67789L38.2187 8.71123C38.2187 8.71123 38.2187 8.46958 38.4606 8.22792C38.2187 7.98626 37.7349 7.50295 37.493 7.26129C37.493 7.74461 37.2511 8.22792 37.2511 8.22792L36.5254 8.9529Z" fill="#A49DAE"/>
<path opacity="0.1" d="M36.5254 8.9529C36.7673 9.19456 37.0092 9.43623 37.2511 9.67789L38.2187 8.71123C38.2187 8.71123 38.2187 8.46958 38.4606 8.22792C38.2187 7.98626 37.7349 7.50295 37.493 7.26129C37.493 7.74461 37.2511 8.22792 37.2511 8.22792L36.5254 8.9529Z" fill="#9892A2"/>
<g opacity="0.15">
<path opacity="0.15" d="M2.65741 27.319C2.65741 27.319 2.41628 27.319 2.65741 27.319C2.41628 27.319 2.41628 27.319 2.65741 27.319C2.41628 27.0779 2.41628 27.0779 2.65741 27.319Z" fill="#9B94A4"/>
</g>
<path d="M7.25391 22.4854C7.25391 31.1852 14.2689 38.1934 22.9772 38.1934C31.6855 38.1934 38.7005 31.1852 38.7005 22.4854C38.7005 13.7856 31.6855 6.77747 22.9772 6.77747C14.2689 6.77747 7.25391 13.7856 7.25391 22.4854Z" fill="#FEFEFE"/>
<path d="M9.91602 22.4858C9.91602 29.7356 15.7215 35.5355 22.9784 35.5355C30.2353 35.5355 36.0408 29.7356 36.0408 22.4858C36.0408 15.2359 30.2353 9.43604 22.9784 9.43604C15.9634 9.6777 9.91602 15.4776 9.91602 22.4858Z" fill="#A49DAE"/>
<path d="M22.2541 24.6606L23.7055 20.3107L10.1593 16.9274L9.43359 19.5857L22.2541 24.6606Z" fill="#E1D7EF"/>
<path d="M24.916 23.9357L21.2876 21.2774L13.5469 32.8771L15.9658 34.8104L24.916 23.9357Z" fill="#E1D7EF"/>
<path d="M24.9156 21.2774L21.2871 23.9357L29.9954 34.8104L32.4144 32.8771L24.9156 21.2774Z" fill="#E1D7EF"/>
<path d="M22.2539 20.311L23.7053 24.6609L36.7677 19.586L35.8001 16.9277L22.2539 20.311Z" fill="#E1D7EF"/>
<path d="M20.8008 22.4857H25.3968L24.4293 8.71106H21.5265L20.8008 22.4857Z" fill="#E1D7EF"/>
<path d="M22.9786 27.3193C25.6505 27.3193 27.8165 25.1554 27.8165 22.4861C27.8165 19.8167 25.6505 17.6528 22.9786 17.6528C20.3066 17.6528 18.1406 19.8167 18.1406 22.4861C18.1406 25.1554 20.3066 27.3193 22.9786 27.3193Z" fill="#FEFEFE"/>
</svg>
