<svg width="32" height="33" viewBox="0 0 32 33" fill="none" xmlns="http://www.w3.org/2000/svg">
<path d="M5.86523 16.8198C5.86523 22.378 10.4613 26.9696 16.0249 26.9696C21.5886 26.9696 26.1846 22.378 26.1846 16.8198C26.1846 11.2616 21.5886 6.67004 16.0249 6.67004C10.4613 6.67004 5.86523 11.2616 5.86523 16.8198Z" fill="#E1D7EF"/>
<path d="M0.0605469 16.82C0.0605469 25.7614 7.31742 32.7696 16.0257 32.7696C24.9759 32.7696 31.9909 25.5198 31.9909 16.82C31.9909 7.87851 24.734 0.870361 16.0257 0.870361C7.31742 0.870361 0.0605469 7.87851 0.0605469 16.82ZM6.34984 16.82C6.34984 11.2618 10.704 6.91189 16.2676 6.91189C21.8312 6.91189 26.1854 11.2618 26.1854 16.82C26.1854 22.3782 21.8312 26.7281 16.2676 26.7281C10.704 26.7281 6.34984 22.3782 6.34984 16.82Z" fill="#9891A1"/>
<path d="M8.76562 16.8201C8.76562 20.9284 12.1522 24.3117 16.2644 24.3117C20.3767 24.3117 23.7632 20.9284 23.7632 16.8201C23.7632 12.7119 20.3767 9.32861 16.2644 9.32861C12.1522 9.32861 8.76562 12.7119 8.76562 16.8201Z" fill="white"/>
<path d="M11.6699 16.8205C11.6699 19.2371 13.6051 21.4121 16.266 21.4121C18.6849 21.4121 20.862 19.4788 20.862 16.8205C20.862 14.4039 18.9268 12.2289 16.266 12.2289C13.6051 12.2289 11.6699 14.4039 11.6699 16.8205Z" fill="#E1D7EF"/>
<path opacity="0.5" d="M20.1359 8.60352C21.5873 9.3285 23.0387 10.5368 24.0063 11.9868L16.2656 16.5784L20.1359 8.60352Z" fill="white"/>
<path opacity="0.5" d="M16.2661 16.8201L12.3957 25.0367C10.7024 24.3117 9.49297 23.1034 8.52539 21.6534L16.2661 16.8201Z" fill="white"/>
</svg>
