<svg width="50" height="50" viewBox="0 0 50 50" fill="none" xmlns="http://www.w3.org/2000/svg">
<path d="M11.791 25.3447C11.791 32.5945 17.5964 38.3944 24.8533 38.3944C32.1102 38.3944 37.9158 32.5945 37.9158 25.3447C37.9158 18.0948 32.1102 12.295 24.8533 12.295C17.8383 12.0533 11.791 18.0948 11.791 25.3447Z" fill="#9891A1"/>
<path d="M0.420898 25.3449C0.420898 38.8779 11.5482 49.7527 25.0944 49.7527C38.6406 49.7527 49.5259 38.6363 49.5259 25.1032C49.5259 11.5702 38.3987 0.695435 24.8524 0.695435C11.5481 0.695435 0.420898 11.8118 0.420898 25.3449ZM9.85479 25.3449C9.85479 16.8867 16.6279 10.1202 24.8524 10.1202C33.3188 10.1202 40.0919 16.8868 40.0919 25.1032C40.0919 33.3197 33.3189 40.0862 25.0944 40.3279C16.628 40.3279 9.85479 33.5614 9.85479 25.3449Z" fill="#9891A1"/>
<path d="M7.67773 25.3451C7.67773 35.0115 15.4185 42.7447 25.0944 42.7447C34.7702 42.7447 42.5108 35.0115 42.5108 25.3451C42.5108 15.6786 34.7702 7.94543 25.0944 7.94543C15.4185 7.94543 7.67773 15.6786 7.67773 25.3451ZM9.61288 25.3451C9.61288 16.8869 16.628 9.87873 25.0944 9.87873C33.5608 9.87873 40.5757 16.8869 40.5757 25.3451C40.5757 33.8032 33.5608 40.8114 25.0944 40.8114C16.3861 40.8114 9.61288 33.8032 9.61288 25.3451Z" fill="#E2D8F1"/>
<path d="M14.4502 25.3448C14.4502 31.1446 19.2882 35.9779 25.0937 35.9779C30.8992 35.9779 35.7371 31.1446 35.7371 25.3448C35.7371 19.5449 30.8992 14.7117 25.0937 14.7117C19.0463 14.7117 14.4502 19.3032 14.4502 25.3448ZM18.3205 25.3448C18.3205 21.7198 21.2234 18.5782 25.0937 18.5782C28.7222 18.5782 31.8668 21.4782 31.8668 25.3448C31.8668 28.9697 28.9641 32.1113 25.0937 32.1113C21.2234 31.8696 18.3205 28.9697 18.3205 25.3448Z" fill="#EADFF8"/>
<path d="M18.3193 25.3451C18.3193 28.97 21.2222 32.1116 25.0925 32.1116C28.7209 32.1116 31.8655 29.2117 31.8655 25.3451C31.8655 21.7202 28.9628 18.5786 25.0925 18.5786C21.2222 18.5786 18.3193 21.4785 18.3193 25.3451ZM22.4316 22.6869C21.9478 23.1702 21.4641 23.1702 20.9803 22.6869C20.4965 22.2035 20.4965 21.7202 20.9803 21.2369C21.4641 20.7536 21.9478 20.7536 22.4316 21.2369C22.9154 21.7202 22.9154 22.4452 22.4316 22.6869ZM25.5762 21.2369C25.5762 21.4786 25.3344 21.7202 25.0925 21.7202C24.8506 21.7202 24.6087 21.4786 24.6087 21.2369C24.6087 20.9952 24.8506 20.7536 25.0925 20.7536C25.3344 20.5119 25.5762 20.7536 25.5762 21.2369ZM28.9628 22.6869C28.479 23.1702 27.9952 23.1702 27.5115 22.6869C27.0277 22.2035 27.0277 21.7202 27.5115 21.2369C27.9952 20.7536 28.479 20.7536 28.9628 21.2369C29.2047 21.7202 29.2047 22.4452 28.9628 22.6869ZM29.2046 25.8284C28.9627 25.8284 28.7209 25.5868 28.7209 25.3451C28.7209 25.1035 28.9627 24.8618 29.2046 24.8618C29.4465 24.8618 29.6884 25.1035 29.6884 25.3451C29.6884 25.5868 29.4465 25.8284 29.2046 25.8284ZM27.5115 27.7617C27.9952 27.2784 28.479 27.2784 28.9628 27.7617C29.4466 28.245 29.4466 28.7284 28.9628 29.2117C28.479 29.695 27.9952 29.695 27.5115 29.2117C27.2696 28.7284 27.2696 28.245 27.5115 27.7617ZM24.3667 29.4533C24.3667 29.2117 24.6086 28.97 24.8505 28.97C25.0924 28.97 25.3343 29.2117 25.3343 29.4533C25.3343 29.695 25.0924 29.9367 24.8505 29.9367C24.6086 29.9367 24.3667 29.695 24.3667 29.4533ZM22.4316 25.3451C22.4316 23.8952 23.6411 22.6869 25.0925 22.6869C26.5439 22.6869 27.7533 23.8952 27.7533 25.3451C27.7533 26.7951 26.5439 28.0034 25.0925 28.0034C23.6411 27.7617 22.4316 26.7951 22.4316 25.3451ZM21.2221 27.7617C21.7059 27.2784 22.1898 27.2784 22.6736 27.7617C23.1573 28.245 23.1573 28.7284 22.6736 29.2117C22.1898 29.695 21.7059 29.695 21.2221 29.2117C20.7383 28.7284 20.7383 28.245 21.2221 27.7617ZM20.2546 25.3451C20.2546 25.1035 20.4964 24.8618 20.7383 24.8618C20.9802 24.8618 21.2221 25.1035 21.2221 25.3451C21.2221 25.5868 20.9802 25.8284 20.7383 25.8284C20.4964 25.8284 20.2546 25.5868 20.2546 25.3451Z" fill="#E1D7EF"/>
<path d="M18.3193 25.3451C18.3193 28.97 21.2222 32.1116 25.0925 32.1116C28.7209 32.1116 31.8655 29.2117 31.8655 25.3451C31.8655 21.7202 28.9628 18.5786 25.0925 18.5786C21.2222 18.5786 18.3193 21.4785 18.3193 25.3451ZM22.4316 22.6869C21.9478 23.1702 21.4641 23.1702 20.9803 22.6869C20.4965 22.2035 20.4965 21.7202 20.9803 21.2369C21.4641 20.7536 21.9478 20.7536 22.4316 21.2369C22.9154 21.7202 22.9154 22.4452 22.4316 22.6869ZM25.5762 21.2369C25.5762 21.4786 25.3344 21.7202 25.0925 21.7202C24.8506 21.7202 24.6087 21.4786 24.6087 21.2369C24.6087 20.9952 24.8506 20.7536 25.0925 20.7536C25.3344 20.5119 25.5762 20.7536 25.5762 21.2369ZM28.9628 22.6869C28.479 23.1702 27.9952 23.1702 27.5115 22.6869C27.0277 22.2035 27.0277 21.7202 27.5115 21.2369C27.9952 20.7536 28.479 20.7536 28.9628 21.2369C29.2047 21.7202 29.2047 22.4452 28.9628 22.6869ZM29.2046 25.8284C28.9627 25.8284 28.7209 25.5868 28.7209 25.3451C28.7209 25.1035 28.9627 24.8618 29.2046 24.8618C29.4465 24.8618 29.6884 25.1035 29.6884 25.3451C29.6884 25.5868 29.4465 25.8284 29.2046 25.8284ZM27.5115 27.7617C27.9952 27.2784 28.479 27.2784 28.9628 27.7617C29.4466 28.245 29.4466 28.7284 28.9628 29.2117C28.479 29.695 27.9952 29.695 27.5115 29.2117C27.2696 28.7284 27.2696 28.245 27.5115 27.7617ZM24.3667 29.4533C24.3667 29.2117 24.6086 28.97 24.8505 28.97C25.0924 28.97 25.3343 29.2117 25.3343 29.4533C25.3343 29.695 25.0924 29.9367 24.8505 29.9367C24.6086 29.9367 24.3667 29.695 24.3667 29.4533ZM22.4316 25.3451C22.4316 23.8952 23.6411 22.6869 25.0925 22.6869C26.5439 22.6869 27.7533 23.8952 27.7533 25.3451C27.7533 26.7951 26.5439 28.0034 25.0925 28.0034C23.6411 27.7617 22.4316 26.7951 22.4316 25.3451ZM21.2221 27.7617C21.7059 27.2784 22.1898 27.2784 22.6736 27.7617C23.1573 28.245 23.1573 28.7284 22.6736 29.2117C22.1898 29.695 21.7059 29.695 21.2221 29.2117C20.7383 28.7284 20.7383 28.245 21.2221 27.7617ZM20.2546 25.3451C20.2546 25.1035 20.4964 24.8618 20.7383 24.8618C20.9802 24.8618 21.2221 25.1035 21.2221 25.3451C21.2221 25.5868 20.9802 25.8284 20.7383 25.8284C20.4964 25.8284 20.2546 25.5868 20.2546 25.3451Z" fill="#DBD1E8"/>
<path d="M9.61328 25.345C9.61328 33.8031 16.6284 40.8113 25.0948 40.8113C33.5612 40.8113 40.5761 33.8031 40.5761 25.345C40.5761 16.8868 33.5612 9.87866 25.0948 9.87866C16.3865 9.87866 9.61328 16.6452 9.61328 25.345ZM15.1769 19.5451C14.6931 20.2701 13.7256 20.5118 12.9999 20.0284C12.2742 19.5451 11.7903 18.5785 12.2741 17.8535C12.7579 17.1285 13.7255 16.8868 14.4512 17.3701C15.1769 17.8535 15.6607 18.8201 15.1769 19.5451ZM25.0948 14.7119C30.9003 14.7119 35.7382 19.5451 35.7382 25.345C35.7382 31.1449 30.9003 35.9781 25.0948 35.9781C19.2892 35.9781 14.4512 31.1449 14.4512 25.345C14.4512 19.3034 19.0473 14.7119 25.0948 14.7119ZM19.2892 15.4369C18.5635 15.9202 17.5958 15.4369 17.112 14.7119C16.6282 13.9869 16.8702 13.0202 17.5959 12.5369C18.3216 12.0536 19.2892 12.5369 19.773 13.2619C20.2568 13.9869 20.0149 14.9536 19.2892 15.4369ZM26.5461 12.2953C26.5461 13.2619 25.8205 13.9869 25.0948 13.9869C24.3691 13.9869 23.6433 13.2619 23.6433 12.2953C23.6433 11.3286 24.3691 10.6037 25.0948 10.6037C25.8205 10.6037 26.5461 11.3286 26.5461 12.2953ZM32.8354 14.7119C32.3516 15.4369 31.3841 15.9202 30.6584 15.4369C29.9327 14.9536 29.6908 13.9869 30.1745 13.2619C30.6583 12.5369 31.626 12.0536 32.3517 12.5369C33.0774 12.7786 33.3192 13.7452 32.8354 14.7119ZM37.1896 20.0284C36.4639 20.5118 35.2544 20.2701 35.0125 19.5451C34.5287 18.8201 35.0125 17.8535 35.7382 17.3701C36.4638 16.8868 37.4315 17.1285 37.9153 17.8535C38.1572 18.5785 37.9153 19.5451 37.1896 20.0284ZM38.1571 26.795C37.1895 26.795 36.4638 26.07 36.4638 25.345C36.4638 24.62 37.1895 23.895 38.1571 23.895C39.1247 23.895 39.8504 24.62 39.8504 25.345C39.8504 26.07 39.1247 26.795 38.1571 26.795ZM34.7707 30.9032C35.2545 30.1782 36.222 29.9366 36.9476 30.4199C37.6733 30.9032 38.1571 31.8698 37.6733 32.5948C37.1895 33.3198 36.222 33.5615 35.4963 33.0781C34.7706 32.5948 34.5288 31.6282 34.7707 30.9032ZM30.6584 35.0114C31.3841 34.5281 32.3516 35.0115 32.8354 35.7364C33.3192 36.4614 33.0774 37.4281 32.3517 37.9114C31.626 38.3947 30.6583 37.9114 30.1745 37.1864C29.9327 36.4614 29.9327 35.4948 30.6584 35.0114ZM23.6433 38.3947C23.6433 37.4281 24.3691 36.7031 25.0948 36.7031C25.8205 36.7031 26.5461 37.4281 26.5461 38.3947C26.5461 39.3614 25.8205 40.0863 25.0948 40.0863C24.1272 40.0863 23.6433 39.3614 23.6433 38.3947ZM17.112 35.9781C17.5958 35.2531 18.5635 34.7698 19.2892 35.2531C20.0149 35.7364 20.2568 36.7031 19.773 37.4281C19.2892 38.153 18.3216 38.6364 17.5959 38.1531C16.8702 37.6697 16.6282 36.7031 17.112 35.9781ZM12.9999 30.6615C13.7256 30.1782 14.6931 30.4199 15.1769 31.1449C15.6607 31.8699 15.1769 32.8365 14.4512 33.3198C13.7255 33.8031 12.7579 33.5615 12.2741 32.8365C11.7903 31.8699 12.0323 31.1449 12.9999 30.6615ZM10.3389 25.345C10.3389 24.62 11.0647 23.895 12.0323 23.895C12.9998 23.895 13.7256 24.62 13.7256 25.345C13.7256 26.07 12.9998 26.795 12.0323 26.795C11.0647 26.795 10.3389 26.07 10.3389 25.345Z" fill="#E1D7EF"/>
</svg>
